<svg id="Layer_1" data-name="Layer 1" xmlns="http://www.w3.org/2000/svg" viewBox="0 0 283.5 64.1"><defs><style>.cls-1{fill:#fff;}</style></defs><title>Artboard 1</title><path class="cls-1" d="M98.5,0a20.9,20.9,0,0,0-8.7,2.1s-1.1-1-2.1-.7a2.65,2.65,0,0,0-1.5,1.9,13.2,13.2,0,0,0-.3,1.3A51.66,51.66,0,0,0,79.2,14a37.52,37.52,0,0,0-3.9,13.7c-.1,2.7.3,3.3,1.5,3.3a6.64,6.64,0,0,0,2.7-1.3,34.79,34.79,0,0,0,3.6-3,24.08,24.08,0,0,0,6-9.3A32.89,32.89,0,0,0,90.8,7.3a12,12,0,0,1,7.5-2.6,3.12,3.12,0,0,1,3.3,2.4,5.83,5.83,0,0,1-1,3.5,7.82,7.82,0,0,0-5.3-1.1,5.5,5.5,0,0,0-4.5,5.3,4.38,4.38,0,0,0,4.4,4.5,8.84,8.84,0,0,0,4.6-1.4c1.1,2.5-1,7.7-5.5,7.9a3.85,3.85,0,0,1-3.5-1.6,1.84,1.84,0,0,0-.9-.6s-2-.1-2,2.5,2.3,5.3,6.8,5.1a10.92,10.92,0,0,0,10.5-9.7c.6-5-1-7.3-1-7.3a11,11,0,0,0,3-7C107,2.3,102.6,0,98.5,0ZM84,18.7a22.65,22.65,0,0,1-4.4,6,21.13,21.13,0,0,1,2.5-7.6,33.79,33.79,0,0,1,3.6-5.2A17.27,17.27,0,0,1,84,18.7Zm11.6-2.9a1.55,1.55,0,0,1-1.8-1c-.1-.5.3-1.2,1.3-1.5a2.8,2.8,0,0,1,2.6,1.1A3.28,3.28,0,0,1,95.6,15.8Z"/><path class="cls-1" d="M117.4,22.6a7.41,7.41,0,0,0,4.1-6.7c0-.8-.6-5-6-4.4-6.3.7-8.9,6.8-9.4,9.9-1.1,7.1,3.3,9.9,7.5,9.8a12.7,12.7,0,0,0,9.2-4.5,27.65,27.65,0,0,0,4.8-8.2,17.72,17.72,0,0,0,.6-1.7c0-.1.1-.3.2-.3.4.1,1.7.3,2.1.4.1,0,.1,0,.1.1-.1.3-1.2,2.6-1.6,3.6-.5,1.3-2.4,5.1-2.6,6.9a3.23,3.23,0,0,0,3.3,3.6c2.5.1,4.2-1.3,6-3.3a3.51,3.51,0,0,0,2.5,3.2c2.1.6,4.7-1.3,4.8-1.2s-4.6,4.2-5.5,8.1c-.6,2.5,2.7,3.9,4.5,2.8,2.8-1.8,4.9-8.5,6.1-10.8a27.88,27.88,0,0,1,6.3-3.8c.1,2.3,1.4,4.9,3.8,4.9,2.9,0,4.2-1.4,5.5-2.5,0,0,.4,2.5,2.6,2.5a7,7,0,0,0,3.7-1.4,17.39,17.39,0,0,0,4.1-3.7s-2.4,5.1,1,5.1c2.7,0,3.9-3.6,5-6.1,2.8-6.3,3.9-7.8,5.2-8.4,1.5-.7,2.4.3,1.8,2-.1.2-2.5,6.6-2.7,7.9-.3,2.2.4,4.3,3.7,4.5a7.8,7.8,0,0,0,6.5-2.9,6.6,6.6,0,0,0,6.1,3.1,8.15,8.15,0,0,0,6.2-2.7c1.8-2.3,1.7-5.6,1.2-8.4a26.34,26.34,0,0,0-2.1-6.5,5.82,5.82,0,0,0,1.3-2.3c.4-1.3,0-3.9-3.2-3.8a3.23,3.23,0,0,0-3.1,2.9,7,7,0,0,0,.6,3c-.7,1.6-4.7,6.4-4.7,6.4a2.62,2.62,0,0,0-2.6.7,3.67,3.67,0,0,0-1,3.4c-.7,1.2-2.4,2.1-3.3,1.6-1.1-.5.4-3,.8-4.1.9-2.3,2.2-5.3,2.2-6.9,0-1.2-.4-3.1-3.2-3.3-2.3-.2-4.8,2.1-4.8,2.1a7.43,7.43,0,0,0-.8-1.5c-1-1.4-3.5-.8-4.6,1.2-.5,1-2.7,4.6-2.7,4.6a33.77,33.77,0,0,1-5.7,5.3c-1.2.5-1.1-.5-.6-2s2.8-6.4,3.2-7.6-.5-2.4-2.3-2.4a5.54,5.54,0,0,0-3.3,1.9,3.75,3.75,0,0,0-2.7-1.7,9.67,9.67,0,0,0-7.8,4.1,18.77,18.77,0,0,0-3.2,6.3c-.4.3-2.7,1.2-3.6,1.8-.3.1.4-.9.9-2.3s2.9-6.6,3.2-7.6a1.76,1.76,0,0,0-1.8-2.5,5.23,5.23,0,0,0-3.9,2,3.81,3.81,0,0,0-2.7-1.8c-1.5-.1-4.9.3-7.8,3.9a18.3,18.3,0,0,0-3.6,7.1s-1.8,3.6-2.9,3.3c-.7-.2-.3-1.7.2-3,.6-1.5,3.6-8.3,3.7-8.7.5-1.1.4-2.1-.9-2.2-1.1,0-4.2.2-4.8.2a14.78,14.78,0,0,1-1.6-.1,4.11,4.11,0,0,0-.7-3.6,3.31,3.31,0,0,0-3.7-.4,3.69,3.69,0,0,0-1.7,3.5,4.64,4.64,0,0,0,1.1,2.4,19.86,19.86,0,0,1-3,7.8c-1.4,2-4.2,5.3-7.6,5.2-2.7-.1-3.1-3-3.1-3a9.72,9.72,0,0,0,7.2-.8Zm86.2-5s2,5.2.7,7.3a2.74,2.74,0,0,1-3.1,1.1,3.56,3.56,0,0,1-2.2-2.2A51.68,51.68,0,0,0,203.6,17.6Zm-42.3,1.8c1.5-2.5,4-4,5.3-3.2s1,3.5-.6,6-4.1,3.8-5.4,3S159.7,21.9,161.3,19.4Zm-19.5,0c1.5-2.5,4-4,5.3-3.2s1,3.5-.6,6-4.1,3.8-5.4,3S140.2,21.9,141.8,19.4Zm-28.6-2.7c1.6-1.1,2.8-.8,3.3-.2s.2,2.3-1.6,3.2a5,5,0,0,1-3.7.4A4.57,4.57,0,0,1,113.2,16.7Z"/><path class="cls-1" d="M26.1,40,15.8,64.1h4.9L23,58.8h9.7L35,64.1h4.9L29.6,40ZM24.7,54.6l3.1-7.1,3.1,7.1Z"/><path class="cls-1" d="M61.8,42.3A13.68,13.68,0,0,0,53.5,40H45.9V64.1h7.6c3.8,0,6.3-.8,8.3-2.3A12,12,0,0,0,66.6,52,11.85,11.85,0,0,0,61.8,42.3Zm-1.6,15A7.3,7.3,0,0,1,54,60H50.6V44.2H54a7.43,7.43,0,0,1,6.2,2.7A8.39,8.39,0,0,1,62,52.1a9.31,9.31,0,0,1-1.8,5.2Z"/><path class="cls-1" d="M80.3,64.1h3.3L93.3,40H88.5L81.9,56.4,75.3,40H70.6Z"/><path class="cls-1" d="M114.3,44.1V40H99.9V64.1h14.8V59.9H104.5V53.2h7.4V49.1h-7.4v-5Z"/><path class="cls-1" d="M138.9,55.7,125.5,40h-3.3V64.1h4.7V48.4l13.4,15.7h3.3V45h-4.7Z"/><path class="cls-1" d="M161.6,64.1v-20H168V40H150.6v4.1H157v20Z"/><path class="cls-1" d="M174.9,40V53.9c0,3.7,1.1,6.2,3.1,8a10.71,10.71,0,0,0,7.2,2.5,10.53,10.53,0,0,0,7.2-2.5c2-1.8,3.1-4.3,3.1-8V40h-4.6V54.3a5.83,5.83,0,0,1-1.6,4.5,5.75,5.75,0,0,1-4.1,1.5,6.23,6.23,0,0,1-4.1-1.5c-1-.9-1.6-2.3-1.6-4.5V40Z"/><path class="cls-1" d="M218.4,51.6a6.77,6.77,0,0,0,0-9.8,7.34,7.34,0,0,0-5.3-1.8h-8.8V64.1h4.6V53.4h1.7l8.6,10.7h5.7l-9-11a8.74,8.74,0,0,0,2.5-1.5Zm-3.2-3a3,3,0,0,1-2.3.7H209V44.1h3.9a2.62,2.62,0,0,1,2.3.8,2.74,2.74,0,0,1,.7,1.9A3.12,3.12,0,0,1,215.2,48.6Z"/><path class="cls-1" d="M235.5,53.2h7.4V49.1h-7.4v-5h9.8V40H230.8V64.1h14.8V59.9H235.5Z"/><path class="cls-1" d="M257.1,46.4c0-1.9,2-2.6,3.7-2.6a6.57,6.57,0,0,1,4.2,1.6l2.4-3.4a11.09,11.09,0,0,0-7-2.3c-4,0-8,2.5-8,6.8a6.12,6.12,0,0,0,3.4,5.5c3.2,1.9,7.7,2.3,7.7,5.4,0,1.8-1.4,3-3.5,3a7.75,7.75,0,0,1-5.7-2.7l-3,3.2a12.79,12.79,0,0,0,8.7,3.6c4.3,0,8.2-3,8.2-7.2,0-8.2-11.1-7-11.1-10.9Z"/></svg>