<?xml version="1.0" encoding="utf-8"?>
<!-- Generator: Adobe Illustrator 21.1.0, SVG Export Plug-In . SVG Version: 6.00 Build 0)  -->
<svg version="1.1" id="Layer_1" xmlns="http://www.w3.org/2000/svg" xmlns:xlink="http://www.w3.org/1999/xlink" x="0px" y="0px"
	 viewBox="0 0 283.5 283.5" style="enable-background:new 0 0 283.5 283.5;" xml:space="preserve">
<g>
	<path style="fill:#FFFFFF;" d="M98.5,100.8c-3.5,0.1-6.9,1.1-8.7,2.1c0,0-1.1-1-2.1-0.7c-0.8,0.3-1.3,1.1-1.5,1.9
		c-0.2,0.8-0.3,1.2-0.3,1.3c-0.4,0.4-4.5,5.1-6.7,9.4c-2.5,4.7-3.8,10.9-3.9,13.7c-0.1,2.7,0.3,3.3,1.5,3.3c1,0,2.7-1.3,2.7-1.3
		s1.2-0.8,3.6-3c2.5-2.3,4.9-6,6-9.3c1.8-5.3,1.7-10.1,1.7-10.1c2.7-2.1,5.8-2.7,7.5-2.6c1.7,0,3.1,1,3.3,2.4c0.2,1.8-1,3.5-1,3.5
		s-2.6-1.7-5.3-1.1c-2.2,0.5-4.5,2.3-4.5,5.3s2.4,4.5,4.4,4.5c2.6,0,4.6-1.4,4.6-1.4c1.1,2.5-1,7.7-5.5,7.9
		c-2.5,0.1-3.5-1.6-3.5-1.6s-0.4-0.5-0.9-0.6c0,0-2-0.1-2,2.5c0.1,2.6,2.3,5.3,6.8,5.1c5.1-0.2,9.8-3.9,10.5-9.7c0.6-5-1-7.3-1-7.3
		c1.5-1.4,3-4.5,3-7C107,103.1,102.6,100.8,98.5,100.8z M84,119.5c-1.7,3.5-4.4,6-4.4,6s0.3-3.6,2.5-7.6c1.6-2.9,3.6-5.2,3.6-5.2
		S85.7,116,84,119.5z M95.6,116.6c-0.9,0.1-1.6-0.3-1.8-1c-0.1-0.5,0.3-1.2,1.3-1.5c1-0.2,2.3,0.5,2.6,1.1
		C97.7,115.4,96.6,116.5,95.6,116.6z"/>
	<path style="fill:#FFFFFF;" d="M117.4,123.4c3.8-2.1,4.1-5.4,4.1-6.7c0-0.8-0.6-5-6-4.4c-6.3,0.7-8.9,6.8-9.4,9.9
		c-1.1,7.1,3.3,9.9,7.5,9.8c2.5-0.1,6.4-1.1,9.2-4.5c3.4-4.2,4.4-7.2,4.8-8.2c0.2-0.4,0.5-1.4,0.6-1.7c0-0.1,0.1-0.3,0.2-0.3
		c0.4,0.1,1.7,0.3,2.1,0.4c0.1,0,0.1,0,0.1,0.1c-0.1,0.3-1.2,2.6-1.6,3.6c-0.5,1.3-2.4,5.1-2.6,6.9c-0.2,2,1.3,3.6,3.3,3.6
		c2.5,0.1,4.2-1.3,6-3.3c0,0,0.1,2.6,2.5,3.2c2.1,0.6,4.7-1.3,4.8-1.2c0.1,0.1-4.6,4.2-5.5,8.1c-0.6,2.5,2.7,3.9,4.5,2.8
		c2.8-1.8,4.9-8.5,6.1-10.8c0.3-0.3,3.5-2.7,6.3-3.8c0.1,2.3,1.4,4.9,3.8,4.9c2.9,0,4.2-1.4,5.5-2.5c0,0,0.4,2.5,2.6,2.5
		c1.4,0,2.6-0.7,3.7-1.4c1.1-0.7,3.1-2.3,4.1-3.7c0,0-2.4,5.1,1,5.1c2.7,0,3.9-3.6,5-6.1c2.8-6.3,3.9-7.8,5.2-8.4
		c1.5-0.7,2.4,0.3,1.8,2c-0.1,0.2-2.5,6.6-2.7,7.9c-0.3,2.2,0.4,4.3,3.7,4.5c4,0.4,6.5-2.9,6.5-2.9c1.4,2.2,3.6,3.2,6.1,3.1
		c2.5-0.1,4.7-0.9,6.2-2.7c1.8-2.3,1.7-5.6,1.2-8.4c-0.6-3.5-2.1-6.5-2.1-6.5s0.9-0.9,1.3-2.3c0.4-1.3,0-3.9-3.2-3.8
		c-1.9,0.1-3,1.6-3.1,2.9c-0.1,1.5,0.6,3,0.6,3c-0.7,1.6-4.7,6.4-4.7,6.4s-1.1-0.5-2.6,0.7c-1.5,1.3-1,3.4-1,3.4
		c-0.7,1.2-2.4,2.1-3.3,1.6c-1.1-0.5,0.4-3,0.8-4.1c0.9-2.3,2.2-5.3,2.2-6.9c0-1.2-0.4-3.1-3.2-3.3c-2.3-0.2-4.8,2.1-4.8,2.1
		s-0.3-0.8-0.8-1.5c-1-1.4-3.5-0.8-4.6,1.2c-0.5,1-2.7,4.6-2.7,4.6c-1.3,1.6-4.6,4.7-5.7,5.3c-1.2,0.5-1.1-0.5-0.6-2
		c0.5-1.4,2.8-6.4,3.2-7.6c0.4-1.3-0.5-2.4-2.3-2.4c-1.8,0.1-3.3,1.9-3.3,1.9c-0.4-0.5-1.2-1.6-2.7-1.7c-1.5-0.1-5,0.5-7.8,4.1
		c-1.6,2.1-2.7,4.4-3.2,6.3c-0.4,0.3-2.7,1.2-3.6,1.8c-0.3,0.1,0.4-0.9,0.9-2.3s2.9-6.6,3.2-7.6c0.3-1,0.2-2.4-1.8-2.5
		c-2.3-0.1-3.9,2-3.9,2c-0.4-0.5-1.2-1.7-2.7-1.8s-4.9,0.3-7.8,3.9c-2.9,3.6-3.6,7.1-3.6,7.1s-1.8,3.6-2.9,3.3
		c-0.7-0.2-0.3-1.7,0.2-3c0.6-1.5,3.6-8.3,3.7-8.7c0.5-1.1,0.4-2.1-0.9-2.2c-1.1,0-4.2,0.2-4.8,0.2c-0.8,0-1.6-0.1-1.6-0.1
		c0.3-1.5,0-2.9-0.7-3.6c-0.9-0.8-2.5-1.1-3.7-0.4c-1.2,0.7-1.9,2.3-1.7,3.5c0.1,1.3,1.1,2.4,1.1,2.4c-0.4,2.7-1.6,5.8-3,7.8
		c-1.4,2-4.2,5.3-7.6,5.2c-2.7-0.1-3.1-3-3.1-3S113.9,125.4,117.4,123.4z M203.6,118.4c0,0,2,5.2,0.7,7.3c-0.7,1-1.7,1.4-3.1,1.1
		c-1.6-0.4-2.2-2.2-2.2-2.2C201,122.5,203.6,118.4,203.6,118.4z M161.3,120.2c1.5-2.5,4-4,5.3-3.2c1.3,0.8,1,3.5-0.6,6
		c-1.5,2.5-4.1,3.8-5.4,3C159.2,125.3,159.7,122.7,161.3,120.2z M141.8,120.2c1.5-2.5,4-4,5.3-3.2c1.3,0.8,1,3.5-0.6,6
		c-1.5,2.5-4.1,3.8-5.4,3C139.7,125.3,140.2,122.7,141.8,120.2z M113.2,117.5c1.6-1.1,2.8-0.8,3.3-0.2c0.6,0.7,0.2,2.3-1.6,3.2
		c-1.5,0.7-2.7,0.7-3.7,0.4C111.2,120.8,111.3,118.8,113.2,117.5z"/>
	<path style="fill:#FFFFFF;" d="M26.1,140.8l-10.3,24.1h4.9l2.3-5.3h9.7l2.3,5.3h4.9l-10.3-24.1H26.1z M24.7,155.4l3.1-7.1l3.1,7.1
		H24.7z"/>
	<path style="fill:#FFFFFF;" d="M61.8,143.1c-2-1.4-4.5-2.3-8.3-2.3h-7.6v24.1h7.6c3.8,0,6.3-0.8,8.3-2.3c3-2.2,4.8-5.8,4.8-9.8
		S64.8,145.3,61.8,143.1z M60.2,158.1c-1.3,1.7-3.3,2.7-6.2,2.7h-3.4v-15.8H54c2.9,0,4.8,1,6.2,2.7c1.1,1.4,1.8,3.2,1.8,5.2
		C61.9,154.8,61.3,156.7,60.2,158.1z"/>
	<polygon style="fill:#FFFFFF;" points="80.3,164.9 83.6,164.9 93.3,140.8 88.5,140.8 81.9,157.2 75.3,140.8 70.6,140.8 	"/>
	<polygon style="fill:#FFFFFF;" points="114.3,144.9 114.3,140.8 99.9,140.8 99.9,164.9 114.7,164.9 114.7,160.7 104.5,160.7 
		104.5,154 111.9,154 111.9,149.9 104.5,149.9 104.5,144.9 	"/>
	<polygon style="fill:#FFFFFF;" points="138.9,156.5 125.5,140.8 122.2,140.8 122.2,164.9 126.9,164.9 126.9,149.2 140.3,164.9 
		143.6,164.9 143.6,145.8 138.9,145.8 	"/>
	<polygon style="fill:#FFFFFF;" points="161.6,164.9 161.6,144.9 168,144.9 168,140.8 150.6,140.8 150.6,144.9 157,144.9 157,164.9 
			"/>
	<path style="fill:#FFFFFF;" d="M174.9,140.8v13.9c0,3.7,1.1,6.2,3.1,8c1.9,1.7,4.5,2.5,7.2,2.5s5.4-0.8,7.2-2.5
		c2-1.8,3.1-4.3,3.1-8v-13.9h-4.6v14.3c0,2.2-0.6,3.5-1.6,4.5c-1,1-2.5,1.5-4.1,1.5s-3.1-0.6-4.1-1.5c-1-0.9-1.6-2.3-1.6-4.5v-14.3
		H174.9z"/>
	<path style="fill:#FFFFFF;" d="M218.4,152.4c1.3-1.2,2.1-3,2.1-4.9s-0.8-3.7-2.1-4.9c-1.2-1.1-2.8-1.8-5.3-1.8h-8.8v24.1h4.6v-10.7
		h1.7l8.6,10.7h5.7l-9-11C216.9,153.5,217.7,153,218.4,152.4z M215.2,149.4c-0.4,0.4-1,0.7-2.3,0.7H209v-5.2h3.9
		c1.3,0,1.9,0.3,2.3,0.8c0.4,0.4,0.7,1.1,0.7,1.9C215.9,148.2,215.6,148.9,215.2,149.4z"/>
	<polygon style="fill:#FFFFFF;" points="235.5,154 242.9,154 242.9,149.9 235.5,149.9 235.5,144.9 245.3,144.9 245.3,140.8 
		230.8,140.8 230.8,164.9 245.6,164.9 245.6,160.7 235.5,160.7 	"/>
	<path style="fill:#FFFFFF;" d="M257.1,147.2c0-1.9,2-2.6,3.7-2.6c1.6,0,3.2,0.7,4.2,1.6l2.4-3.4c-2.3-1.7-4.5-2.3-7-2.3
		c-4,0-8,2.5-8,6.8c0,2.7,1.5,4.4,3.4,5.5c3.2,1.9,7.7,2.3,7.7,5.4c0,1.8-1.4,3-3.5,3c-2.2,0-4.3-1.1-5.7-2.7l-3,3.2
		c2.5,2.3,5.5,3.6,8.7,3.6c4.3,0,8.2-3,8.2-7.2C268.2,149.9,257.1,151.1,257.1,147.2z"/>
	<path style="fill:#FFFFFF;" d="M142,48c-46.8,0-85.4,36.6-87.9,83.3c-0.1,1.1,0.8,2,1.9,2.1c1.1,0.1,2-0.8,2.1-1.9
		C60.5,87,97.3,52,142,52c44.7,0,81.5,34.9,83.9,79.5c0.1,1.1,0.9,1.9,2,1.9c0,0,0.1,0,0.1,0c1.1-0.1,2-1,1.9-2.1
		C227.4,84.6,188.8,48,142,48z"/>
	<path style="fill:#FFFFFF;" d="M219.2,174c-1-0.5-2.2-0.1-2.7,0.8C201.9,202.7,173.4,220,142,220s-59.9-17.3-74.5-45.1
		c-0.5-1-1.7-1.4-2.7-0.8c-1,0.5-1.4,1.7-0.8,2.7c15.3,29.2,45.1,47.3,78,47.3s62.7-18.1,78-47.3C220.5,175.8,220.1,174.6,219.2,174
		z"/>
</g>
</svg>
