<?xml version="1.0" encoding="utf-8"?>
<!-- Generator: Adobe Illustrator 23.0.2, SVG Export Plug-In . SVG Version: 6.00 Build 0)  -->
<svg version="1.1" id="Layer_1" xmlns="http://www.w3.org/2000/svg" xmlns:xlink="http://www.w3.org/1999/xlink" x="0px" y="0px"
	 viewBox="0 0 220 116" style="enable-background:new 0 0 220 116;" xml:space="preserve">
<style type="text/css">
	.st0{fill:#FFFFFF;}
</style>
<g>
	<g>
		<g>
			<path class="st0" d="M18.6,75.9h-5.9v15H8.3v-15H2.4v-3.7h16.2V75.9z"/>
			<path class="st0" d="M29.4,91.2c-2.8,0-5.2-0.9-7.2-2.8c-1.9-1.8-2.9-4.1-2.9-6.9c0-2.8,1-5.1,2.9-6.9c1.9-1.8,4.3-2.8,7.2-2.8
				c1.6,0,3,0.3,4.4,1c1.4,0.7,2.5,1.6,3.4,2.7v0.3l-2.8,2.3h-0.3c-1.2-1.5-2.8-2.2-4.7-2.2c-1.6,0-2.9,0.5-4,1.6
				c-1.1,1.1-1.6,2.4-1.6,4c0,1.6,0.5,3,1.6,4c1.1,1.1,2.4,1.6,4,1.6c1.9,0,3.5-0.7,4.7-2.2h0.3l2.8,2.3v0.3c-0.9,1.1-2.1,2-3.4,2.7
				C32.4,90.9,31,91.2,29.4,91.2z"/>
			<path class="st0" d="M53.5,72.3v3.7h-9.1v3.9h7.1v3.5h-7.1v3.9h9.2v3.7H40V72.3H53.5z"/>
			<path class="st0" d="M71.9,72.5l-6.4,8.8l6.7,9.3l-0.1,0.3h-3.5l-5-7.2l-5.1,7.2h-3.3L55,90.6l6.7-9.1l-6.3-9l0.1-0.3h3.5
				l4.6,6.8l4.7-6.8h3.3L71.9,72.5z"/>
			<path class="st0" d="M74.9,72.3h7.4c2.2,0,3.9,0.5,5.1,1.5c1.2,1,1.8,2.5,1.8,4.3c0,1.9-0.6,3.3-1.8,4.3s-2.9,1.5-5.1,1.5h-4.2
				v6.9h-3.2V72.3z M78.1,81.4h4.5c1,0,1.8-0.3,2.4-0.8c0.6-0.6,0.9-1.4,0.9-2.4c0-1-0.3-1.8-0.9-2.4c-0.6-0.6-1.4-0.8-2.4-0.8h-4.5
				V81.4z"/>
			<path class="st0" d="M105.3,72.3v2.7h-9.8v5.3h7.7v2.6h-7.7v5.4h9.8v2.7h-13V72.3H105.3z"/>
			<path class="st0" d="M109,72.3h7.6c2.9,0,5.3,0.8,7.1,2.5c1.8,1.7,2.7,3.9,2.7,6.7c0,2.8-0.9,5.1-2.7,6.8
				c-1.8,1.7-4.1,2.6-7.1,2.6H109V72.3z M112.1,88.2h4.4c2,0,3.6-0.6,4.8-1.8c1.2-1.2,1.8-2.8,1.8-4.8c0-2-0.6-3.6-1.8-4.8
				c-1.2-1.2-2.8-1.8-4.8-1.8h-4.4V88.2z"/>
			<path class="st0" d="M130,90.9V72.3h3.2v18.6H130z"/>
			<path class="st0" d="M151.2,74.9h-6v15.9H142V74.9h-6v-2.7h15.2V74.9z"/>
			<path class="st0" d="M154,90.9V72.3h3.2v18.6H154z"/>
			<path class="st0" d="M177.9,88.5c-1.9,1.8-4.3,2.8-7.1,2.8c-2.8,0-5.2-0.9-7.1-2.8c-1.9-1.8-2.9-4.1-2.9-6.9c0-2.8,1-5.1,2.9-6.9
				c1.9-1.8,4.3-2.8,7.1-2.8c2.8,0,5.2,0.9,7.1,2.8c1.9,1.8,2.9,4.1,2.9,6.9C180.7,84.3,179.8,86.6,177.9,88.5z M165.9,86.4
				c1.3,1.3,2.9,1.9,4.8,1.9c1.9,0,3.5-0.6,4.8-1.9c1.3-1.3,1.9-2.9,1.9-4.9c0-2-0.6-3.6-1.9-4.9c-1.3-1.3-2.9-1.9-4.8-1.9
				c-1.9,0-3.5,0.6-4.8,1.9c-1.3,1.3-1.9,2.9-1.9,4.9C164,83.5,164.6,85.2,165.9,86.4z"/>
			<path class="st0" d="M197,85.3V72.3h3.1v18.8h-1.8L187.5,78v12.9h-3.1V72.3h1.8L197,85.3z"/>
			<path class="st0" d="M211,91.2c-1.5,0-3-0.3-4.3-1c-1.3-0.6-2.4-1.5-3.3-2.6v-0.3l1.7-1.8h0.3c0.7,0.9,1.5,1.5,2.5,2.1
				c1,0.5,2,0.8,2.9,0.8c1.1,0,2.1-0.2,2.7-0.7c0.7-0.5,1-1.1,1-1.9c0-0.7-0.2-1.2-0.7-1.7c-0.2-0.2-0.5-0.4-0.9-0.5
				c-0.3-0.1-0.7-0.3-1-0.4c-0.5-0.2-0.9-0.3-1.2-0.4c-0.4-0.1-0.9-0.3-1.3-0.4c-0.7-0.3-1.3-0.5-1.7-0.7c-0.5-0.2-1-0.5-1.6-1
				c-1.2-0.8-1.7-2-1.7-3.6c0-1.5,0.6-2.8,1.8-3.8c1.2-1,2.8-1.5,4.7-1.5c1.4,0,2.7,0.3,3.8,0.8c1.1,0.5,2.1,1.2,2.7,2.1V75
				l-1.7,1.8h-0.2c-1.3-1.5-2.8-2.2-4.6-2.2c-1,0-1.8,0.2-2.4,0.6c-0.6,0.4-0.9,1-0.9,1.7c0,0.5,0.2,0.9,0.5,1.3s0.7,0.6,1.1,0.8
				c0.3,0.1,0.8,0.3,1.7,0.7c0.1,0,0.5,0.2,1,0.3c0.7,0.2,1,0.4,1.1,0.4c0.2,0.1,0.5,0.2,1,0.4c0.5,0.2,0.9,0.4,1,0.5
				c0.2,0.2,0.5,0.4,0.8,0.6c0.1,0.1,0.2,0.2,0.3,0.3c0.1,0.1,0.2,0.2,0.3,0.2c0.1,0.1,0.1,0.2,0.2,0.3c0.1,0.1,0.1,0.2,0.2,0.2
				c0,0,0.1,0.1,0.2,0.3c0.1,0.2,0.2,0.3,0.2,0.3c0.3,0.6,0.5,1.3,0.5,2.3c0,1.6-0.6,2.9-1.9,3.9C214.6,90.7,213,91.2,211,91.2z"/>
		</g>
	</g>
	<g>
		<g>
			<path class="st0" d="M41.9,99h0.9l0,0.1l-2,5.3h-0.5l-1.4-3.7l-1.3,3.7h-0.5l-2-5.3l0-0.1h0.9l1.3,3.8l1.3-3.8h0.5l1.3,3.8
				L41.9,99z"/>
			<path class="st0" d="M49.7,99v0.8H47v1.5h2.2v0.7H47v1.5h2.8v0.8H46V99H49.7z"/>
			<path class="st0" d="M60.1,104.4c-0.8,0-1.5-0.3-2-0.8c-0.5-0.5-0.8-1.2-0.8-2c0-0.8,0.3-1.4,0.8-2c0.5-0.5,1.2-0.8,2-0.8
				c0.4,0,0.9,0.1,1.2,0.3c0.4,0.2,0.7,0.4,1,0.8v0.1l-0.6,0.5h-0.1c-0.4-0.5-0.9-0.8-1.6-0.8c-0.5,0-1,0.2-1.4,0.5
				c-0.4,0.4-0.6,0.8-0.6,1.4c0,0.6,0.2,1,0.6,1.4c0.4,0.4,0.8,0.6,1.4,0.6c0.7,0,1.2-0.3,1.6-0.8h0.1l0.6,0.5v0.1
				c-0.3,0.3-0.6,0.6-1,0.8C61,104.3,60.6,104.4,60.1,104.4z"/>
			<path class="st0" d="M68.7,102.1l1.2,2.2l0,0.1h-0.9l-1.1-2.1h-1.2v2.1h-0.9V99h2.1c0.6,0,1.1,0.1,1.5,0.4
				c0.3,0.3,0.5,0.7,0.5,1.2c0,0.4-0.1,0.7-0.3,0.9C69.3,101.8,69,101.9,68.7,102.1z M67.9,99.7h-1.3v1.8h1.3c0.3,0,0.5-0.1,0.7-0.2
				c0.2-0.2,0.3-0.4,0.3-0.6c0-0.3-0.1-0.5-0.3-0.6C68.5,99.8,68.2,99.7,67.9,99.7z"/>
			<path class="st0" d="M77.1,99v0.8h-2.8v1.5h2.2v0.7h-2.2v1.5h2.8v0.8h-3.7V99H77.1z"/>
			<path class="st0" d="M82.5,99H83l2.5,5.3l0,0.1h-0.9l-0.5-1.1h-2.6l-0.5,1.1H80l0-0.1L82.5,99z M82.7,100.3l-1,2.3h2L82.7,100.3z
				"/>
			<path class="st0" d="M91.8,99.7h-1.7v4.6h-0.9v-4.6h-1.7V99h4.4V99.7z"/>
			<path class="st0" d="M98.8,99v0.8H96v1.5h2.2v0.7H96v1.5h2.8v0.8h-3.7V99H98.8z"/>
			<path class="st0" d="M110.4,99v0.8h-2.8v1.5h2.2v0.7h-2.2v1.5h2.8v0.8h-3.7V99H110.4z"/>
			<path class="st0" d="M118.2,99l-1.8,2.5l1.9,2.7l0,0.1h-1l-1.4-2.1l-1.5,2.1h-1l0-0.1l1.9-2.6l-1.8-2.6l0-0.1h1l1.3,2l1.4-2
				L118.2,99L118.2,99z"/>
			<path class="st0" d="M121.5,99h2.1c0.6,0,1.1,0.1,1.5,0.4c0.3,0.3,0.5,0.7,0.5,1.2s-0.2,0.9-0.5,1.2c-0.3,0.3-0.8,0.4-1.5,0.4
				h-1.2v2h-0.9V99z M122.4,101.6h1.3c0.3,0,0.5-0.1,0.7-0.2c0.2-0.2,0.2-0.4,0.2-0.7c0-0.3-0.1-0.5-0.2-0.7
				c-0.2-0.2-0.4-0.2-0.7-0.2h-1.3V101.6z"/>
			<path class="st0" d="M132.6,99v0.8h-2.8v1.5h2.2v0.7h-2.2v1.5h2.8v0.8h-3.7V99H132.6z"/>
			<path class="st0" d="M139.1,102.1l1.2,2.2l0,0.1h-0.9l-1.1-2.1h-1.2v2.1h-0.9V99h2.1c0.6,0,1.1,0.1,1.5,0.4
				c0.3,0.3,0.5,0.7,0.5,1.2c0,0.4-0.1,0.7-0.3,0.9C139.8,101.8,139.5,101.9,139.1,102.1z M138.4,99.7h-1.3v1.8h1.3
				c0.3,0,0.5-0.1,0.7-0.2c0.2-0.2,0.3-0.4,0.3-0.6c0-0.3-0.1-0.5-0.3-0.6C138.9,99.8,138.7,99.7,138.4,99.7z"/>
			<path class="st0" d="M143.8,104.3V99h0.9v5.3H143.8z"/>
			<path class="st0" d="M152.3,99v0.8h-2.8v1.5h2.2v0.7h-2.2v1.5h2.8v0.8h-3.7V99H152.3z"/>
			<path class="st0" d="M159.4,102.7V99h0.9v5.4h-0.5l-3.1-3.8v3.7h-0.9V99h0.5L159.4,102.7z"/>
			<path class="st0" d="M166.6,104.4c-0.8,0-1.5-0.3-2-0.8c-0.5-0.5-0.8-1.2-0.8-2c0-0.8,0.3-1.4,0.8-2c0.5-0.5,1.2-0.8,2-0.8
				c0.4,0,0.9,0.1,1.2,0.3c0.4,0.2,0.7,0.4,1,0.8v0.1l-0.6,0.5h-0.1c-0.4-0.5-0.9-0.8-1.6-0.8c-0.5,0-1,0.2-1.4,0.5
				c-0.4,0.4-0.6,0.8-0.6,1.4c0,0.6,0.2,1,0.6,1.4c0.4,0.4,0.8,0.6,1.4,0.6c0.7,0,1.2-0.3,1.6-0.8h0.1l0.6,0.5v0.1
				c-0.3,0.3-0.6,0.6-1,0.8C167.5,104.3,167.1,104.4,166.6,104.4z"/>
			<path class="st0" d="M176,99v0.8h-2.8v1.5h2.2v0.7h-2.2v1.5h2.8v0.8h-3.7V99H176z"/>
			<path class="st0" d="M181.2,104.4c-0.4,0-0.9-0.1-1.2-0.3c-0.4-0.2-0.7-0.4-0.9-0.7v-0.1l0.5-0.5h0.1c0.2,0.2,0.4,0.4,0.7,0.6
				c0.3,0.1,0.6,0.2,0.8,0.2c0.3,0,0.6-0.1,0.8-0.2c0.2-0.1,0.3-0.3,0.3-0.5c0-0.2-0.1-0.4-0.2-0.5c-0.1-0.1-0.1-0.1-0.2-0.2
				c-0.1,0-0.2-0.1-0.3-0.1c-0.1,0-0.3-0.1-0.4-0.1c-0.1,0-0.2-0.1-0.4-0.1c-0.2-0.1-0.4-0.1-0.5-0.2c-0.1-0.1-0.3-0.2-0.4-0.3
				c-0.3-0.2-0.5-0.6-0.5-1c0-0.4,0.2-0.8,0.5-1.1c0.3-0.3,0.8-0.4,1.3-0.4c0.4,0,0.8,0.1,1.1,0.2c0.3,0.1,0.6,0.3,0.8,0.6v0.1
				l-0.5,0.5h-0.1c-0.4-0.4-0.8-0.6-1.3-0.6c-0.3,0-0.5,0.1-0.7,0.2c-0.2,0.1-0.3,0.3-0.3,0.5c0,0.1,0,0.3,0.1,0.4
				c0.1,0.1,0.2,0.2,0.3,0.2c0.1,0,0.2,0.1,0.5,0.2c0,0,0.1,0,0.3,0.1c0.2,0.1,0.3,0.1,0.3,0.1c0.1,0,0.2,0.1,0.3,0.1
				c0.1,0.1,0.2,0.1,0.3,0.1c0.1,0,0.1,0.1,0.2,0.2c0,0,0.1,0,0.1,0.1c0,0,0.1,0,0.1,0.1c0,0,0,0,0.1,0.1c0,0,0,0.1,0,0.1
				s0,0,0.1,0.1c0,0,0,0.1,0.1,0.1c0.1,0.2,0.1,0.4,0.1,0.7c0,0.5-0.2,0.8-0.5,1.1C182.2,104.3,181.8,104.4,181.2,104.4z"/>
		</g>
	</g>
	<path class="st0" d="M118,27.1c0.2,1.1-0.8,4.6-1,5.3c-6.5,20.3-6,9.4-6,9.4c-0.8,0.4-2,0.9-0.9-2.1c1-2.7,2.2-4.4,3.3-6.4
		c1.5-2.6,2.8-4.9,3.4-6.2c0.1-0.2,0.2-0.3,0.4-0.3h0.5C117.9,26.9,118,27,118,27.1z M95.7,42.1c-4.8,7.3-6.5,10.2-7.2,11.3
		c-0.3,0.6,0.3,1.9,1.2,0.3c0.9-1.6,1-1.6,1.7-2.1c0.7-0.5,1.6-1.2,2.1-2.2c1-1.9,3.8-6.4,3.3-6.9C96.5,42.1,96.2,41.4,95.7,42.1z
		 M165.8,65.6l-8.6-10.4v0.1l-8.8-10.5c0,0,0-0.1,0-0.1l-0.1-0.1l0.1,0.2c0.9,3.3,2.2,5.2,1.6,6.9c-0.1,0.3-4.9-6.1-7.3-9.7
		c-0.2-0.3-0.4-0.6-0.6-0.9l-2.5,1.5c-0.6,0.3-1.3,0.2-1.8-0.2l-0.5-0.7v-0.1L120,17.2c0,0-1-1.4-1-1.4c-0.3-0.4-1-0.4-1.3,0
		l-4.6,7.2c-0.8,1.3-1.8,0.4-1-2.1l1.6-5.3c0.2-0.4-0.5-1.1-1.5,0l-2.6,3.3l-6,7.9c-0.7,1-2.4,3.3-3.3,3.5c-0.2,0-0.3-0.1-0.3-0.3
		l1.4-3.3l-5.8,6.8l-6.9,7.7c-1,0.5-0.8-1.3-0.5-1.9l2.7-5.5l-3.5-1.7c-0.6-0.2-1.2,0-1.6,0.4L54.7,62.4c-0.4,0.4-1.6,0.1-0.9-0.9
		l28.9-33.6c0.4-0.5,1.6-1.9,4.2-1.2l6.2,1.5c0.5,0.1,1.1,0,1.5-0.4l17.8-18.9c2-1.9,4.3-2.2,6,0.1c0.5,0.7,1.2,1.7,1.2,1.7
		l18.9,26.1c0.5,0.5,1.3,0.6,1.9,0.1l2.3-1.4c0.3-0.2,1.4-1.1,2.9-0.8c1,0.2,2.2,2.2,2.2,2.2L166.7,65
		C166.9,65.6,166.2,66.1,165.8,65.6z M146,41.9L146,41.9C146,41.9,146,41.9,146,41.9z M146.1,41.9L146.1,41.9
		C146.1,41.9,146.1,41.9,146.1,41.9C146.1,41.9,146.1,41.9,146.1,41.9z M127.3,41.7c-3-3.7-2.6-0.9-2.3-0.5l6.3,10
		c0.9,1,3.3,2.2,2.2,0.4C132.4,49.7,128.2,42.8,127.3,41.7z"/>
</g>
<g>
	<g>
		<g>
			<g>
				<path class="st0" d="M250.4,57.3h-4.3v10.9h-3.3V57.3h-4.2v-2.7h11.8V57.3z"/>
				<path class="st0" d="M258.2,68.4c-2.1,0-3.8-0.7-5.2-2c-1.4-1.3-2.1-3-2.1-5s0.7-3.7,2.1-5c1.4-1.3,3.2-2,5.2-2
					c1.1,0,2.2,0.2,3.2,0.7c1,0.5,1.8,1.1,2.5,1.9v0.2l-2,1.7h-0.2c-0.9-1.1-2-1.6-3.4-1.6c-1.1,0-2.1,0.4-2.9,1.2
					c-0.8,0.8-1.2,1.8-1.2,2.9s0.4,2.2,1.2,2.9c0.8,0.8,1.7,1.2,2.9,1.2c1.4,0,2.6-0.5,3.4-1.6h0.2l2,1.7v0.2
					c-0.7,0.8-1.5,1.5-2.5,2C260.5,68.2,259.4,68.4,258.2,68.4z"/>
				<path class="st0" d="M275.8,54.6v2.7h-6.6v2.8h5.1v2.5h-5.1v2.9h6.7v2.7h-9.9V54.6H275.8z"/>
				<path class="st0" d="M289.2,54.8l-4.7,6.4l4.9,6.8l-0.1,0.2h-2.6l-3.6-5.2l-3.7,5.2H277l-0.1-0.2l4.9-6.6l-4.6-6.6l0.1-0.2h2.6
					l3.4,5l3.4-5h2.4L289.2,54.8z"/>
				<path class="st0" d="M291.4,54.6h5.4c1.6,0,2.8,0.4,3.7,1.1c0.9,0.7,1.3,1.8,1.3,3.1c0,1.4-0.4,2.4-1.3,3.1
					c-0.9,0.7-2.1,1.1-3.7,1.1h-3v5.1h-2.3V54.6z M293.7,61.3h3.3c0.8,0,1.3-0.2,1.8-0.6c0.4-0.4,0.6-1,0.6-1.7
					c0-0.8-0.2-1.3-0.6-1.7c-0.4-0.4-1-0.6-1.8-0.6h-3.3V61.3z"/>
				<path class="st0" d="M313.5,54.6v2h-7.1v3.8h5.6v1.9h-5.6v3.9h7.1v2h-9.4V54.6H313.5z"/>
				<path class="st0" d="M316.2,54.6h5.5c2.1,0,3.9,0.6,5.2,1.9c1.3,1.2,1.9,2.9,1.9,4.9c0,2-0.6,3.7-1.9,4.9
					c-1.3,1.2-3,1.9-5.2,1.9h-5.5V54.6z M318.5,66.2h3.2c1.4,0,2.6-0.4,3.5-1.3c0.9-0.9,1.3-2.1,1.3-3.5c0-1.5-0.4-2.6-1.3-3.5
					c-0.9-0.9-2-1.3-3.5-1.3h-3.2V66.2z"/>
				<path class="st0" d="M331.4,68.2V54.6h2.3v13.6H331.4z"/>
				<path class="st0" d="M346.9,56.6h-4.4v11.6h-2.3V56.6h-4.4v-2h11.1V56.6z"/>
				<path class="st0" d="M348.9,68.2V54.6h2.3v13.6H348.9z"/>
				<path class="st0" d="M366.3,66.4c-1.4,1.3-3.1,2-5.2,2c-2.1,0-3.8-0.7-5.2-2c-1.4-1.3-2.1-3-2.1-5s0.7-3.7,2.1-5
					c1.4-1.3,3.1-2,5.2-2c2.1,0,3.8,0.7,5.2,2c1.4,1.3,2.1,3,2.1,5S367.7,65.1,366.3,66.4z M357.6,64.9c0.9,0.9,2.1,1.4,3.5,1.4
					c1.4,0,2.6-0.5,3.5-1.4c0.9-0.9,1.4-2.1,1.4-3.5c0-1.4-0.5-2.6-1.4-3.5c-1-0.9-2.1-1.4-3.5-1.4c-1.4,0-2.6,0.5-3.5,1.4
					c-0.9,0.9-1.4,2.1-1.4,3.5C356.2,62.8,356.7,64,357.6,64.9z"/>
				<path class="st0" d="M380.3,64.1v-9.5h2.3v13.7h-1.3l-7.9-9.5v9.4h-2.3V54.6h1.3L380.3,64.1z"/>
				<path class="st0" d="M390.4,68.4c-1.1,0-2.2-0.2-3.2-0.7c-1-0.5-1.8-1.1-2.4-1.9v-0.2l1.3-1.3h0.2c0.5,0.6,1.1,1.1,1.8,1.5
					c0.7,0.4,1.4,0.6,2.1,0.6c0.8,0,1.5-0.2,2-0.5c0.5-0.3,0.7-0.8,0.7-1.4c0-0.5-0.2-0.9-0.5-1.2c-0.1-0.1-0.3-0.3-0.6-0.4
					c-0.2-0.1-0.5-0.2-0.7-0.3c-0.3-0.1-0.6-0.2-0.9-0.3c-0.3-0.1-0.6-0.2-1-0.3c-0.5-0.2-1-0.4-1.3-0.5c-0.3-0.2-0.7-0.4-1.1-0.7
					c-0.8-0.6-1.3-1.5-1.3-2.6c0-1.1,0.4-2,1.3-2.7c0.9-0.7,2-1.1,3.4-1.1c1,0,1.9,0.2,2.8,0.6c0.8,0.4,1.5,0.9,2,1.5v0.2l-1.2,1.3
					h-0.2c-0.9-1.1-2-1.6-3.3-1.6c-0.7,0-1.3,0.2-1.7,0.5c-0.5,0.3-0.7,0.7-0.7,1.2c0,0.4,0.1,0.7,0.4,0.9s0.5,0.5,0.8,0.6
					c0.2,0.1,0.6,0.3,1.2,0.5c0.1,0,0.3,0.1,0.8,0.2c0.5,0.2,0.8,0.3,0.8,0.3c0.1,0.1,0.4,0.2,0.7,0.3c0.4,0.2,0.6,0.3,0.8,0.4
					c0.2,0.1,0.4,0.3,0.6,0.4c0.1,0.1,0.2,0.1,0.2,0.2c0.1,0.1,0.1,0.1,0.2,0.2c0,0,0.1,0.1,0.2,0.2c0.1,0.1,0.1,0.1,0.1,0.2
					c0,0,0.1,0.1,0.1,0.2c0.1,0.1,0.1,0.2,0.1,0.2c0.3,0.4,0.4,1,0.4,1.7c0,1.2-0.5,2.1-1.4,2.9C393.1,68.1,391.9,68.4,390.4,68.4z"
					/>
			</g>
		</g>
		<g>
			<g>
				<path class="st0" d="M267.3,74h0.6l0,0.1l-1.4,3.8h-0.4l-1-2.7l-1,2.7h-0.4l-1.4-3.8l0-0.1h0.7l0.9,2.7L265,74h0.4l1,2.8
					L267.3,74z"/>
				<path class="st0" d="M273.1,74v0.6h-2v1.1h1.6v0.5H271v1.1h2v0.6h-2.7V74H273.1z"/>
				<path class="st0" d="M280.6,78c-0.6,0-1.1-0.2-1.5-0.6c-0.4-0.4-0.6-0.9-0.6-1.4c0-0.6,0.2-1.1,0.6-1.4c0.4-0.4,0.9-0.6,1.5-0.6
					c0.3,0,0.6,0.1,0.9,0.2c0.3,0.1,0.5,0.3,0.7,0.6v0.1l-0.4,0.3h0c-0.3-0.4-0.7-0.6-1.1-0.6c-0.4,0-0.7,0.1-1,0.4
					c-0.3,0.3-0.4,0.6-0.4,1c0,0.4,0.1,0.8,0.4,1c0.3,0.3,0.6,0.4,1,0.4c0.5,0,0.9-0.2,1.1-0.6h0l0.4,0.3v0.1
					c-0.2,0.2-0.4,0.4-0.7,0.6C281.2,77.9,280.9,78,280.6,78z"/>
				<path class="st0" d="M286.8,76.3l0.8,1.6l0,0.1H287l-0.8-1.6h-0.8v1.6h-0.7V74h1.6c0.5,0,0.8,0.1,1.1,0.3
					c0.2,0.2,0.4,0.5,0.4,0.9c0,0.3-0.1,0.5-0.2,0.7C287.3,76.1,287.1,76.2,286.8,76.3z M286.3,74.6h-1v1.3h1c0.2,0,0.4-0.1,0.5-0.2
					c0.1-0.1,0.2-0.3,0.2-0.5c0-0.2-0.1-0.3-0.2-0.5C286.7,74.7,286.5,74.6,286.3,74.6z"/>
				<path class="st0" d="M293,74v0.6h-2v1.1h1.6v0.5h-1.6v1.1h2v0.6h-2.7V74H293z"/>
				<path class="st0" d="M296.9,74h0.4l1.8,3.8l0,0.1h-0.7l-0.3-0.8h-1.9l-0.4,0.8h-0.6l0-0.1L296.9,74z M297,75l-0.7,1.7h1.5
					L297,75z"/>
				<path class="st0" d="M303.7,74.6h-1.3v3.3h-0.7v-3.3h-1.3V74h3.2V74.6z"/>
				<path class="st0" d="M308.8,74v0.6h-2v1.1h1.6v0.5h-1.6v1.1h2v0.6h-2.7V74H308.8z"/>
				<path class="st0" d="M317.2,74v0.6h-2v1.1h1.6v0.5h-1.6v1.1h2v0.6h-2.7V74H317.2z"/>
				<path class="st0" d="M322.9,74.1l-1.3,1.8l1.4,1.9l0,0.1h-0.7l-1-1.5l-1.1,1.5h-0.7l0-0.1l1.4-1.9l-1.3-1.9l0-0.1h0.7l1,1.4
					l1-1.4L322.9,74.1L322.9,74.1z"/>
				<path class="st0" d="M325.3,74h1.5c0.5,0,0.8,0.1,1.1,0.3c0.2,0.2,0.4,0.5,0.4,0.9c0,0.4-0.1,0.7-0.4,0.9
					c-0.2,0.2-0.6,0.3-1.1,0.3h-0.9v1.4h-0.7V74z M325.9,75.9h0.9c0.2,0,0.4-0.1,0.5-0.2c0.1-0.1,0.2-0.3,0.2-0.5
					c0-0.2-0.1-0.4-0.2-0.5c-0.1-0.1-0.3-0.2-0.5-0.2h-0.9V75.9z"/>
				<path class="st0" d="M333.4,74v0.6h-2v1.1h1.6v0.5h-1.6v1.1h2v0.6h-2.7V74H333.4z"/>
				<path class="st0" d="M338.1,76.3l0.8,1.6l0,0.1h-0.7l-0.8-1.6h-0.8v1.6H336V74h1.6c0.5,0,0.8,0.1,1.1,0.3
					c0.2,0.2,0.4,0.5,0.4,0.9c0,0.3-0.1,0.5-0.2,0.7C338.6,76.1,338.4,76.2,338.1,76.3z M337.6,74.6h-1v1.3h1c0.2,0,0.4-0.1,0.5-0.2
					c0.1-0.1,0.2-0.3,0.2-0.5c0-0.2-0.1-0.3-0.2-0.5C338,74.7,337.8,74.6,337.6,74.6z"/>
				<path class="st0" d="M341.5,77.9V74h0.7v3.9H341.5z"/>
				<path class="st0" d="M347.7,74v0.6h-2v1.1h1.6v0.5h-1.6v1.1h2v0.6H345V74H347.7z"/>
				<path class="st0" d="M352.9,76.8V74h0.7V78h-0.4l-2.3-2.7v2.7h-0.7V74h0.4L352.9,76.8z"/>
				<path class="st0" d="M358.2,78c-0.6,0-1.1-0.2-1.5-0.6c-0.4-0.4-0.6-0.9-0.6-1.4c0-0.6,0.2-1.1,0.6-1.4c0.4-0.4,0.9-0.6,1.5-0.6
					c0.3,0,0.6,0.1,0.9,0.2c0.3,0.1,0.5,0.3,0.7,0.6v0.1l-0.4,0.3h0c-0.3-0.4-0.7-0.6-1.1-0.6c-0.4,0-0.7,0.1-1,0.4
					c-0.3,0.3-0.4,0.6-0.4,1c0,0.4,0.1,0.8,0.4,1c0.3,0.3,0.6,0.4,1,0.4c0.5,0,0.9-0.2,1.1-0.6h0l0.4,0.3v0.1
					c-0.2,0.2-0.4,0.4-0.7,0.6S358.5,78,358.2,78z"/>
				<path class="st0" d="M364.9,74v0.6h-2v1.1h1.6v0.5h-1.6v1.1h2v0.6h-2.7V74H364.9z"/>
				<path class="st0" d="M368.7,78c-0.3,0-0.6-0.1-0.9-0.2c-0.3-0.1-0.5-0.3-0.7-0.5v-0.1l0.4-0.4h0.1c0.1,0.2,0.3,0.3,0.5,0.4
					c0.2,0.1,0.4,0.2,0.6,0.2c0.2,0,0.4,0,0.6-0.1c0.1-0.1,0.2-0.2,0.2-0.4c0-0.1,0-0.3-0.1-0.4c0,0-0.1-0.1-0.2-0.1
					c-0.1,0-0.1-0.1-0.2-0.1c-0.1,0-0.2-0.1-0.3-0.1c-0.1,0-0.2-0.1-0.3-0.1c-0.2-0.1-0.3-0.1-0.4-0.2c-0.1,0-0.2-0.1-0.3-0.2
					c-0.2-0.2-0.4-0.4-0.4-0.8c0-0.3,0.1-0.6,0.4-0.8c0.3-0.2,0.6-0.3,1-0.3c0.3,0,0.6,0.1,0.8,0.2c0.2,0.1,0.4,0.3,0.6,0.4v0.1
					l-0.4,0.4h0c-0.3-0.3-0.6-0.5-1-0.5c-0.2,0-0.4,0-0.5,0.1c-0.1,0.1-0.2,0.2-0.2,0.4c0,0.1,0,0.2,0.1,0.3
					c0.1,0.1,0.1,0.1,0.2,0.2c0.1,0,0.2,0.1,0.4,0.1c0,0,0.1,0,0.2,0.1c0.1,0,0.2,0.1,0.2,0.1c0,0,0.1,0,0.2,0.1
					c0.1,0,0.2,0.1,0.2,0.1c0,0,0.1,0.1,0.2,0.1c0,0,0,0,0.1,0.1c0,0,0,0,0.1,0c0,0,0,0,0,0.1c0,0,0,0,0,0.1s0,0,0,0.1
					c0,0,0,0.1,0,0.1c0.1,0.1,0.1,0.3,0.1,0.5c0,0.3-0.1,0.6-0.4,0.8C369.5,77.9,369.2,78,368.7,78z"/>
			</g>
		</g>
		<path class="st0" d="M322.7,21.7c0.1,0.8-0.6,3.3-0.7,3.8c-4.7,14.8-4.4,6.9-4.4,6.9c-0.6,0.3-1.5,0.7-0.7-1.5
			c0.7-2,1.6-3.2,2.4-4.6c1.1-1.9,2-3.6,2.5-4.5c0.1-0.1,0.2-0.2,0.3-0.2h0.4C322.6,21.6,322.7,21.6,322.7,21.7z M306.5,32.7
			c-3.5,5.3-4.8,7.4-5.2,8.2c-0.3,0.4,0.2,1.4,0.9,0.2c0.7-1.1,0.7-1.2,1.3-1.5c0.5-0.4,1.2-0.9,1.6-1.6c0.8-1.4,2.8-4.6,2.4-5
			C307.1,32.6,306.9,32.2,306.5,32.7z M357.5,49.8l-6.3-7.6v0l-6.4-7.7c0,0,0,0,0-0.1l-0.1-0.1l0.1,0.2c0.7,2.4,1.6,3.8,1.2,5
			c-0.1,0.2-3.6-4.5-5.3-7.1c-0.2-0.2-0.3-0.4-0.5-0.7l-1.8,1.1c-0.4,0.2-0.9,0.2-1.3-0.2l-0.4-0.5v0l-12.6-17.7c0,0-0.7-1-0.7-1
			c-0.2-0.3-0.7-0.3-0.9,0l-3.3,5.2c-0.6,0.9-1.3,0.3-0.7-1.5l1.1-3.9c0.1-0.3-0.4-0.8-1.1,0l-1.9,2.4l-4.3,5.7
			c-0.5,0.7-1.7,2.4-2.4,2.6c-0.1,0-0.3-0.1-0.2-0.2l1-2.4l-4.2,4.9l-5,5.6c-0.7,0.4-0.6-1-0.4-1.4l2-4l-2.5-1.2
			c-0.4-0.1-0.9,0-1.1,0.3l-22.7,21.7c-0.3,0.3-1.1,0.1-0.7-0.6l21.1-24.5c0.3-0.3,1.1-1.4,3.1-0.9l4.5,1.1c0.4,0.1,0.8,0,1.1-0.3
			l13-13.7c1.4-1.4,3.2-1.6,4.4,0.1c0.4,0.5,0.9,1.2,0.9,1.2l13.8,19c0.4,0.4,1,0.4,1.4,0.1l1.7-1c0.2-0.1,1-0.8,2.1-0.6
			c0.7,0.2,1.6,1.6,1.6,1.6l13.6,20.4C358.4,49.8,357.8,50.1,357.5,49.8z M343.1,32.5L343.1,32.5C343.1,32.5,343.1,32.5,343.1,32.5z
			 M343.2,32.5L343.2,32.5C343.2,32.5,343.2,32.5,343.2,32.5C343.2,32.5,343.2,32.5,343.2,32.5z M329.5,32.3
			c-2.2-2.7-1.9-0.6-1.7-0.4l4.6,7.2c0.7,0.7,2.4,1.6,1.6,0.3C333.2,38.2,330.2,33.1,329.5,32.3z"/>
	</g>
	<g>
		<g>
			<g>
				<path class="st0" d="M250.4,137.3h-4.3v10.9h-3.3v-10.9h-4.2v-2.7h11.8V137.3z"/>
				<path class="st0" d="M258.2,148.4c-2.1,0-3.8-0.7-5.2-2c-1.4-1.3-2.1-3-2.1-5s0.7-3.7,2.1-5c1.4-1.3,3.2-2,5.2-2
					c1.1,0,2.2,0.2,3.2,0.7c1,0.5,1.8,1.1,2.5,1.9v0.2l-2,1.7h-0.2c-0.9-1.1-2-1.6-3.4-1.6c-1.1,0-2.1,0.4-2.9,1.2
					c-0.8,0.8-1.2,1.8-1.2,2.9s0.4,2.2,1.2,2.9c0.8,0.8,1.7,1.2,2.9,1.2c1.4,0,2.6-0.5,3.4-1.6h0.2l2,1.7v0.2
					c-0.7,0.8-1.5,1.5-2.5,2C260.5,148.2,259.4,148.4,258.2,148.4z"/>
				<path class="st0" d="M275.8,134.6v2.7h-6.6v2.8h5.1v2.5h-5.1v2.9h6.7v2.7h-9.9v-13.6H275.8z"/>
				<path class="st0" d="M289.2,134.8l-4.7,6.4l4.9,6.8l-0.1,0.2h-2.6l-3.6-5.2l-3.7,5.2H277l-0.1-0.2l4.9-6.6l-4.6-6.6l0.1-0.2h2.6
					l3.4,5l3.4-5h2.4L289.2,134.8z"/>
				<path class="st0" d="M291.4,134.6h5.4c1.6,0,2.8,0.4,3.7,1.1c0.9,0.7,1.3,1.8,1.3,3.1c0,1.4-0.4,2.4-1.3,3.1
					c-0.9,0.7-2.1,1.1-3.7,1.1h-3v5.1h-2.3V134.6z M293.7,141.3h3.3c0.8,0,1.3-0.2,1.8-0.6c0.4-0.4,0.6-1,0.6-1.7
					c0-0.8-0.2-1.3-0.6-1.7c-0.4-0.4-1-0.6-1.8-0.6h-3.3V141.3z"/>
				<path class="st0" d="M313.5,134.6v2h-7.1v3.8h5.6v1.9h-5.6v3.9h7.1v2h-9.4v-13.6H313.5z"/>
				<path class="st0" d="M316.2,134.6h5.5c2.1,0,3.9,0.6,5.2,1.9c1.3,1.2,1.9,2.9,1.9,4.9c0,2-0.6,3.7-1.9,4.9
					c-1.3,1.2-3,1.9-5.2,1.9h-5.5V134.6z M318.5,146.2h3.2c1.4,0,2.6-0.4,3.5-1.3c0.9-0.9,1.3-2.1,1.3-3.5s-0.4-2.6-1.3-3.5
					c-0.9-0.9-2-1.3-3.5-1.3h-3.2V146.2z"/>
				<path class="st0" d="M331.4,148.2v-13.6h2.3v13.6H331.4z"/>
				<path class="st0" d="M346.9,136.6h-4.4v11.6h-2.3v-11.6h-4.4v-2h11.1V136.6z"/>
				<path class="st0" d="M348.9,148.2v-13.6h2.3v13.6H348.9z"/>
				<path class="st0" d="M366.3,146.4c-1.4,1.3-3.1,2-5.2,2c-2.1,0-3.8-0.7-5.2-2c-1.4-1.3-2.1-3-2.1-5s0.7-3.7,2.1-5
					c1.4-1.3,3.1-2,5.2-2c2.1,0,3.8,0.7,5.2,2c1.4,1.3,2.1,3,2.1,5S367.7,145.1,366.3,146.4z M357.6,144.9c0.9,0.9,2.1,1.4,3.5,1.4
					c1.4,0,2.6-0.5,3.5-1.4c0.9-0.9,1.4-2.1,1.4-3.5s-0.5-2.6-1.4-3.5c-1-0.9-2.1-1.4-3.5-1.4c-1.4,0-2.6,0.5-3.5,1.4
					c-0.9,0.9-1.4,2.1-1.4,3.5S356.7,144,357.6,144.9z"/>
				<path class="st0" d="M380.3,144.1v-9.5h2.3v13.7h-1.3l-7.9-9.5v9.4h-2.3v-13.6h1.3L380.3,144.1z"/>
				<path class="st0" d="M390.4,148.4c-1.1,0-2.2-0.2-3.2-0.7c-1-0.5-1.8-1.1-2.4-1.9v-0.2l1.3-1.3h0.2c0.5,0.6,1.1,1.1,1.8,1.5
					c0.7,0.4,1.4,0.6,2.1,0.6c0.8,0,1.5-0.2,2-0.5c0.5-0.3,0.7-0.8,0.7-1.4c0-0.5-0.2-0.9-0.5-1.2c-0.1-0.1-0.3-0.3-0.6-0.4
					c-0.2-0.1-0.5-0.2-0.7-0.3c-0.3-0.1-0.6-0.2-0.9-0.3c-0.3-0.1-0.6-0.2-1-0.3c-0.5-0.2-1-0.4-1.3-0.5c-0.3-0.2-0.7-0.4-1.1-0.7
					c-0.8-0.6-1.3-1.5-1.3-2.6c0-1.1,0.4-2,1.3-2.7c0.9-0.7,2-1.1,3.4-1.1c1,0,1.9,0.2,2.8,0.6c0.8,0.4,1.5,0.9,2,1.5v0.2l-1.2,1.3
					h-0.2c-0.9-1.1-2-1.6-3.3-1.6c-0.7,0-1.3,0.2-1.7,0.5c-0.5,0.3-0.7,0.7-0.7,1.2c0,0.4,0.1,0.7,0.4,0.9c0.3,0.3,0.5,0.5,0.8,0.6
					c0.2,0.1,0.6,0.3,1.2,0.5c0.1,0,0.3,0.1,0.8,0.2c0.5,0.2,0.8,0.3,0.8,0.3c0.1,0.1,0.4,0.2,0.7,0.3c0.4,0.2,0.6,0.3,0.8,0.4
					c0.2,0.1,0.4,0.3,0.6,0.4c0.1,0.1,0.2,0.1,0.2,0.2c0.1,0.1,0.1,0.1,0.2,0.2c0,0,0.1,0.1,0.2,0.2c0.1,0.1,0.1,0.1,0.1,0.2
					c0,0,0.1,0.1,0.1,0.2c0.1,0.1,0.1,0.2,0.1,0.2c0.3,0.4,0.4,1,0.4,1.7c0,1.2-0.5,2.1-1.4,2.9
					C393.1,148.1,391.9,148.4,390.4,148.4z"/>
			</g>
		</g>
		<g>
			<g>
				<path class="st0" d="M267.3,154h0.6l0,0.1l-1.4,3.8h-0.4l-1-2.7l-1,2.7h-0.4l-1.4-3.8l0-0.1h0.7l0.9,2.7l0.9-2.7h0.4l1,2.8
					L267.3,154z"/>
				<path class="st0" d="M273.1,154v0.6h-2v1.1h1.6v0.5H271v1.1h2v0.6h-2.7V154H273.1z"/>
				<path class="st0" d="M280.6,158c-0.6,0-1.1-0.2-1.5-0.6c-0.4-0.4-0.6-0.9-0.6-1.4c0-0.6,0.2-1.1,0.6-1.4
					c0.4-0.4,0.9-0.6,1.5-0.6c0.3,0,0.6,0.1,0.9,0.2c0.3,0.1,0.5,0.3,0.7,0.6v0.1l-0.4,0.3h0c-0.3-0.4-0.7-0.6-1.1-0.6
					c-0.4,0-0.7,0.1-1,0.4c-0.3,0.3-0.4,0.6-0.4,1s0.1,0.8,0.4,1c0.3,0.3,0.6,0.4,1,0.4c0.5,0,0.9-0.2,1.1-0.6h0l0.4,0.3v0.1
					c-0.2,0.2-0.4,0.4-0.7,0.6C281.2,157.9,280.9,158,280.6,158z"/>
				<path class="st0" d="M286.8,156.3l0.8,1.6l0,0.1H287l-0.8-1.6h-0.8v1.6h-0.7V154h1.6c0.5,0,0.8,0.1,1.1,0.3
					c0.2,0.2,0.4,0.5,0.4,0.9c0,0.3-0.1,0.5-0.2,0.7C287.3,156.1,287.1,156.2,286.8,156.3z M286.3,154.6h-1v1.3h1
					c0.2,0,0.4-0.1,0.5-0.2c0.1-0.1,0.2-0.3,0.2-0.5c0-0.2-0.1-0.3-0.2-0.5C286.7,154.7,286.5,154.6,286.3,154.6z"/>
				<path class="st0" d="M293,154v0.6h-2v1.1h1.6v0.5h-1.6v1.1h2v0.6h-2.7V154H293z"/>
				<path class="st0" d="M296.9,154h0.4l1.8,3.8l0,0.1h-0.7l-0.3-0.8h-1.9l-0.4,0.8h-0.6l0-0.1L296.9,154z M297,155l-0.7,1.7h1.5
					L297,155z"/>
				<path class="st0" d="M303.7,154.6h-1.3v3.3h-0.7v-3.3h-1.3V154h3.2V154.6z"/>
				<path class="st0" d="M308.8,154v0.6h-2v1.1h1.6v0.5h-1.6v1.1h2v0.6h-2.7V154H308.8z"/>
				<path class="st0" d="M317.2,154v0.6h-2v1.1h1.6v0.5h-1.6v1.1h2v0.6h-2.7V154H317.2z"/>
				<path class="st0" d="M322.9,154.1l-1.3,1.8l1.4,1.9l0,0.1h-0.7l-1-1.5l-1.1,1.5h-0.7l0-0.1l1.4-1.9l-1.3-1.9l0-0.1h0.7l1,1.4
					l1-1.4L322.9,154.1L322.9,154.1z"/>
				<path class="st0" d="M325.3,154h1.5c0.5,0,0.8,0.1,1.1,0.3c0.2,0.2,0.4,0.5,0.4,0.9c0,0.4-0.1,0.7-0.4,0.9
					c-0.2,0.2-0.6,0.3-1.1,0.3h-0.9v1.4h-0.7V154z M325.9,155.9h0.9c0.2,0,0.4-0.1,0.5-0.2c0.1-0.1,0.2-0.3,0.2-0.5
					c0-0.2-0.1-0.4-0.2-0.5c-0.1-0.1-0.3-0.2-0.5-0.2h-0.9V155.9z"/>
				<path class="st0" d="M333.4,154v0.6h-2v1.1h1.6v0.5h-1.6v1.1h2v0.6h-2.7V154H333.4z"/>
				<path class="st0" d="M338.1,156.3l0.8,1.6l0,0.1h-0.7l-0.8-1.6h-0.8v1.6H336V154h1.6c0.5,0,0.8,0.1,1.1,0.3
					c0.2,0.2,0.4,0.5,0.4,0.9c0,0.3-0.1,0.5-0.2,0.7C338.6,156.1,338.4,156.2,338.1,156.3z M337.6,154.6h-1v1.3h1
					c0.2,0,0.4-0.1,0.5-0.2c0.1-0.1,0.2-0.3,0.2-0.5c0-0.2-0.1-0.3-0.2-0.5C338,154.7,337.8,154.6,337.6,154.6z"/>
				<path class="st0" d="M341.5,157.9V154h0.7v3.9H341.5z"/>
				<path class="st0" d="M347.7,154v0.6h-2v1.1h1.6v0.5h-1.6v1.1h2v0.6H345V154H347.7z"/>
				<path class="st0" d="M352.9,156.8V154h0.7v3.9h-0.4l-2.3-2.7v2.7h-0.7V154h0.4L352.9,156.8z"/>
				<path class="st0" d="M358.2,158c-0.6,0-1.1-0.2-1.5-0.6c-0.4-0.4-0.6-0.9-0.6-1.4c0-0.6,0.2-1.1,0.6-1.4
					c0.4-0.4,0.9-0.6,1.5-0.6c0.3,0,0.6,0.1,0.9,0.2c0.3,0.1,0.5,0.3,0.7,0.6v0.1l-0.4,0.3h0c-0.3-0.4-0.7-0.6-1.1-0.6
					c-0.4,0-0.7,0.1-1,0.4c-0.3,0.3-0.4,0.6-0.4,1s0.1,0.8,0.4,1c0.3,0.3,0.6,0.4,1,0.4c0.5,0,0.9-0.2,1.1-0.6h0l0.4,0.3v0.1
					c-0.2,0.2-0.4,0.4-0.7,0.6S358.5,158,358.2,158z"/>
				<path class="st0" d="M364.9,154v0.6h-2v1.1h1.6v0.5h-1.6v1.1h2v0.6h-2.7V154H364.9z"/>
				<path class="st0" d="M368.7,158c-0.3,0-0.6-0.1-0.9-0.2c-0.3-0.1-0.5-0.3-0.7-0.5v-0.1l0.4-0.4h0.1c0.1,0.2,0.3,0.3,0.5,0.4
					c0.2,0.1,0.4,0.2,0.6,0.2c0.2,0,0.4,0,0.6-0.1c0.1-0.1,0.2-0.2,0.2-0.4c0-0.1,0-0.3-0.1-0.4c0,0-0.1-0.1-0.2-0.1
					c-0.1,0-0.1-0.1-0.2-0.1c-0.1,0-0.2-0.1-0.3-0.1c-0.1,0-0.2-0.1-0.3-0.1c-0.2-0.1-0.3-0.1-0.4-0.2c-0.1,0-0.2-0.1-0.3-0.2
					c-0.2-0.2-0.4-0.4-0.4-0.8c0-0.3,0.1-0.6,0.4-0.8c0.3-0.2,0.6-0.3,1-0.3c0.3,0,0.6,0.1,0.8,0.2c0.2,0.1,0.4,0.3,0.6,0.4v0.1
					l-0.4,0.4h0c-0.3-0.3-0.6-0.5-1-0.5c-0.2,0-0.4,0-0.5,0.1c-0.1,0.1-0.2,0.2-0.2,0.4c0,0.1,0,0.2,0.1,0.3
					c0.1,0.1,0.1,0.1,0.2,0.2c0.1,0,0.2,0.1,0.4,0.1c0,0,0.1,0,0.2,0.1c0.1,0,0.2,0.1,0.2,0.1c0,0,0.1,0,0.2,0.1
					c0.1,0,0.2,0.1,0.2,0.1c0,0,0.1,0.1,0.2,0.1c0,0,0,0,0.1,0.1c0,0,0,0,0.1,0c0,0,0,0,0,0.1c0,0,0,0,0,0.1s0,0,0,0.1
					c0,0,0,0.1,0,0.1c0.1,0.1,0.1,0.3,0.1,0.5c0,0.3-0.1,0.6-0.4,0.8C369.5,157.9,369.2,158,368.7,158z"/>
			</g>
		</g>
		<path class="st0" d="M322.7,101.7c0.1,0.8-0.6,3.3-0.7,3.8c-4.7,14.8-4.4,6.9-4.4,6.9c-0.6,0.3-1.5,0.7-0.7-1.5
			c0.7-2,1.6-3.2,2.4-4.6c1.1-1.9,2-3.6,2.5-4.5c0.1-0.1,0.2-0.2,0.3-0.2h0.4C322.6,101.6,322.7,101.6,322.7,101.7z M306.5,112.7
			c-3.5,5.3-4.8,7.4-5.2,8.2c-0.3,0.4,0.2,1.4,0.9,0.2c0.7-1.1,0.7-1.2,1.3-1.5c0.5-0.4,1.2-0.9,1.6-1.6c0.8-1.4,2.8-4.6,2.4-5
			C307.1,112.6,306.9,112.2,306.5,112.7z M357.5,129.8l-6.3-7.6v0l-6.4-7.7c0,0,0,0,0-0.1l-0.1-0.1l0.1,0.2c0.7,2.4,1.6,3.8,1.2,5
			c-0.1,0.2-3.6-4.5-5.3-7.1c-0.2-0.2-0.3-0.4-0.5-0.7l-1.8,1.1c-0.4,0.2-0.9,0.2-1.3-0.2l-0.4-0.5v0l-12.6-17.7c0,0-0.7-1-0.7-1
			c-0.2-0.3-0.7-0.3-0.9,0l-3.3,5.2c-0.6,0.9-1.3,0.3-0.7-1.5l1.1-3.9c0.1-0.3-0.4-0.8-1.1,0l-1.9,2.4l-4.3,5.7
			c-0.5,0.7-1.7,2.4-2.4,2.6c-0.1,0-0.3-0.1-0.2-0.2l1-2.4l-4.2,4.9l-5,5.6c-0.7,0.4-0.6-1-0.4-1.4l2-4l-2.5-1.2
			c-0.4-0.1-0.9,0-1.1,0.3l-22.7,21.7c-0.3,0.3-1.1,0.1-0.7-0.6l21.1-24.5c0.3-0.3,1.1-1.4,3.1-0.9l4.5,1.1c0.4,0.1,0.8,0,1.1-0.3
			l13-13.7c1.4-1.4,3.2-1.6,4.4,0.1c0.4,0.5,0.9,1.2,0.9,1.2l13.8,19c0.4,0.4,1,0.4,1.4,0.1l1.7-1c0.2-0.1,1-0.8,2.1-0.6
			c0.7,0.2,1.6,1.6,1.6,1.6l13.6,20.4C358.4,129.8,357.8,130.1,357.5,129.8z M343.1,112.5L343.1,112.5
			C343.1,112.5,343.1,112.5,343.1,112.5z M343.2,112.5L343.2,112.5C343.2,112.5,343.2,112.5,343.2,112.5
			C343.2,112.5,343.2,112.5,343.2,112.5z M329.5,112.3c-2.2-2.7-1.9-0.6-1.7-0.4l4.6,7.2c0.7,0.7,2.4,1.6,1.6,0.3
			C333.2,118.2,330.2,113.1,329.5,112.3z"/>
	</g>
	<rect x="237" y="2" class="st0" width="160" height="160"/>
</g>
</svg>
